<?xml version="1.0" encoding="UTF-8"?>
<svg id="Layer_1" data-name="Layer 1" xmlns="http://www.w3.org/2000/svg" xmlns:xlink="http://www.w3.org/1999/xlink" viewBox="0 0 2441.81 3000">
  <defs>
    <style>
      .cls-1 {
        fill: url(#linear-gradient);
      }

      .cls-2 {
        fill: #25619f;
      }
    </style>
    <linearGradient id="linear-gradient" x1="0" y1="1499.67" x2="2431.9" y2="1499.67" gradientUnits="userSpaceOnUse">
      <stop offset="0" stop-color="#3677b2"/>
      <stop offset="1" stop-color="#135189"/>
    </linearGradient>
  </defs>
  <path class="cls-1" d="M199.82,24.18c57.95-13,119.76-12.32,179.35-12.35,325,1.65,653.89-23.99,977.47-4.47,57.95,4.31,117.54,11.84,174.85,24.61,523.64,106.01,816.29,698.9,547.73,1155.94-27.23,49.04-61.88,89.86-75.9,142.78-8.86,34.99,1.25,66.17,26.4,94.35,20.01,22.41,42.35,39.23,67.45,59.16,258.48,197.95,386.81,535.11,314.96,854.25-66.55,323.33-346.39,577.42-668.8,633.75-436.51,59.79-885.32.55-1326.99,10.86-76.72.4-155.2,5.11-229.56-14.36-81.09-19.91-178.45-97.57-182.18-183.81C4.93,2434.03-1.74,935.81.44,227.21c3.88-35.36,18.97-67.09,39.65-96.81,36.69-53.56,94.36-93.11,159.47-106.16l.26-.06ZM336.52,301.32c-20.51,8.81-21.28,28.07-22.19,49.25-.08,209.92-1.43,718.13.44,937.71,1.8,28.59,9.42,40.61,42.05,44.98,17.63,2.67,53.43,3.1,81.82,3.14,35.37.08,71.09.03,106.66.04,53.15.29,116.47-1.39,159.64,4.04,55.07,6.35,98.99,27.51,117.72,77.96,21.83,56.84-4.3,128.31-58.97,155.7-48.75,24.89-107.88,22.63-162.03,23.51-69.99.28-140.07-.6-207.28.62-19.51.85-39.72.98-56.97,6.97-12.95,4.8-18.7,12.93-21.2,26.49-6.01,217.55-.47,815.3-1.97,1031.5.21,9.89.63,17.87,1.64,24.19,1.41,8.87,3.98,14.47,8.89,17.98,6.6,4.74,17.63,5.78,35.08,6.17,237.41-.29,617.4.59,877.56.18,106.42-.35,179.59.26,258.92,0,42.68-.46,77.86,1.29,116.3-5.49,54.91-9.08,113.14-28.6,168.07-53.47,370.89-167.62,420.52-691.74,123.75-956.81-44.66-40.81-96.65-72.88-151.04-99.36-50.67-25.5-101.63-44.49-145.9-78.41-58.06-43.33-80.8-116.74-50.77-183.9,17.26-40.76,48.14-73.66,80.08-103.64,20.05-18.82,40.67-37.24,59.97-56.86,177.9-170.91,183.24-467.18,47.79-665.34-105.04-156.56-261.17-208.8-442.98-213.98-220.49-6.93-442.14,11.59-662.98,2.64-68.96-1.49-146.9-2.78-213.9-3.57-18.55-.18-37.64,0-55.69,1.32-11.64.54-22.75,2.76-32.38,6.41l-.12.05Z"/>
  <path class="cls-2" d="M1120.79,455.38c256.24-36.59,392.51,325.44,378.03,531.6-7.1,101.11-57.18,237.9-119.55,318.18-39.42,50.74-96.62,87.22-108.88,159.9-9.31,55.17-4.15,161.53-2.14,221.2,6.8,202.4,44.72,404.79,54,606.45,4.71,102.39,9.13,275.14-135.05,279.53-166.93,5.08-170.18-136.85-164.3-264.17,8.93-193.38,42.14-396.18,53.6-591.49,5.98-102,26.19-230.07-24.45-320.97-21.72-38.98-53.59-57.95-78.5-90.45-146.22-190.81-171.12-481-44.37-688.17,39.16-64,114.1-150.54,191.63-161.61Z"/>
</svg>